<?xml version="1.0" standalone="no"?>
<!DOCTYPE svg PUBLIC "-//W3C//DTD SVG 20010904//EN"
 "http://www.w3.org/TR/2001/REC-SVG-20010904/DTD/svg10.dtd">
<svg version="1.0" xmlns="http://www.w3.org/2000/svg"
 width="413.000000pt" height="288.000000pt" viewBox="0 0 413.000000 288.000000"
 preserveAspectRatio="xMidYMid meet">

<g transform="translate(0.000000,288.000000) scale(0.100000,-0.100000)"
fill="#000000" stroke="none">
<path d="M324 2706 c-12 -31 0 -51 31 -51 27 0 30 3 30 30 0 25 -4 30 -28 33
-17 2 -29 -2 -33 -12z"/>
<path d="M320 2560 c0 -28 3 -30 35 -30 32 0 35 2 35 30 0 28 -3 30 -35 30
-32 0 -35 -2 -35 -30z"/>
<path d="M327 2464 c-4 -4 -7 -18 -7 -31 0 -20 5 -23 36 -23 33 0 35 2 32 28
-2 20 -9 28 -28 30 -14 2 -29 0 -33 -4z"/>
<path d="M322 2313 c3 -24 8 -28 33 -28 25 0 30 4 33 28 3 25 1 27 -33 27 -34
0 -36 -2 -33 -27z"/>
<path d="M320 2190 c0 -28 3 -30 35 -30 32 0 35 2 35 30 0 28 -3 30 -35 30
-32 0 -35 -2 -35 -30z"/>
<path d="M320 1440 l0 -650 1453 0 c1404 0 1454 1 1471 19 14 15 14 20 2 30
-10 9 -368 11 -1435 11 l-1421 0 0 590 0 590 1680 0 1681 0 -1 -331 c-2 -352
2 -379 42 -343 17 16 18 36 16 373 l-3 356 -1742 3 -1743 2 0 -650z"/>
<path d="M710 1910 c0 -18 7 -20 60 -20 l60 0 0 -195 c0 -188 1 -195 20 -195
19 0 20 8 22 193 l3 192 63 3 c54 3 62 6 62 22 0 19 -8 20 -145 20 -138 0
-145 -1 -145 -20z"/>
<path d="M1070 1715 c0 -205 1 -215 19 -215 18 0 20 10 23 115 3 100 5 116 23
129 28 21 68 20 96 -3 22 -18 24 -28 27 -130 3 -101 5 -111 23 -111 18 0 19 8
19 110 0 123 -11 158 -55 178 -35 16 -70 15 -105 -3 l-30 -16 0 81 c0 73 -2
80 -20 80 -19 0 -20 -7 -20 -215z"/>
<path d="M1432 1766 c-37 -34 -37 -35 -37 -115 0 -77 1 -82 32 -112 42 -42
112 -50 161 -19 28 17 32 23 22 35 -11 13 -15 13 -33 0 -24 -17 -80 -20 -107
-5 -16 8 -40 58 -40 81 0 5 45 9 100 9 l100 0 0 30 c0 42 -28 94 -60 114 -47
27 -95 21 -138 -18z m121 -18 c9 -7 21 -28 26 -45 l10 -33 -81 0 -80 0 6 28
c13 53 78 80 119 50z"/>
<path d="M2812 1603 c2 -22 9 -29 29 -31 20 -2 28 2 33 20 9 36 8 38 -30 38
-33 0 -35 -2 -32 -27z"/>
<path d="M2705 1568 c-14 -21 -14 -24 2 -35 36 -27 73 -1 53 36 -14 27 -35 27
-55 -1z"/>
<path d="M2932 1578 c-16 -16 -15 -33 3 -48 13 -11 20 -11 40 0 l25 13 -22 24
c-25 26 -29 28 -46 11z"/>
<path d="M2660 1445 c0 -36 10 -42 44 -29 25 10 20 51 -6 58 -36 9 -38 8 -38
-29z"/>
<path d="M2988 1473 c-12 -3 -18 -14 -18 -34 0 -26 4 -29 30 -29 28 0 30 3 30
35 0 35 -5 38 -42 28z"/>
<path d="M1115 1421 c-70 -32 -95 -112 -56 -177 21 -34 53 -48 133 -59 34 -4
51 -12 59 -27 17 -32 -3 -66 -44 -73 -37 -7 -112 9 -123 26 -7 12 -54 -28 -54
-47 0 -7 19 -22 43 -33 54 -26 144 -28 194 -4 65 31 91 109 58 173 -19 37 -41
49 -118 61 -86 14 -107 38 -73 84 15 21 89 25 124 6 16 -8 25 -6 46 10 31 25
27 35 -28 60 -52 24 -110 24 -161 0z"/>
<path d="M1410 1220 l0 -210 40 0 40 0 0 108 c0 117 6 132 52 132 39 0 48 -25
48 -139 l0 -101 40 0 40 0 0 110 c0 121 -13 170 -50 190 -28 15 -81 15 -109 1
-20 -11 -21 -10 -21 54 l0 65 -40 0 -40 0 0 -210z"/>
<path d="M2713 1358 c-29 -14 -29 -19 1 -47 l24 -23 17 26 c14 21 15 29 5 41
-14 17 -17 17 -47 3z"/>
<path d="M2932 1358 c-16 -16 -15 -30 2 -53 14 -19 15 -19 35 -1 26 24 27 42
2 56 -24 13 -24 13 -39 -2z"/>
<path d="M1831 1320 c-18 -5 -45 -20 -60 -34 -23 -23 -26 -36 -29 -105 -6
-119 32 -171 125 -171 84 0 133 57 133 152 0 121 -65 181 -169 158z m79 -89
c16 -31 12 -117 -6 -135 -20 -21 -58 -20 -75 0 -17 21 -18 116 0 137 19 23 68
22 81 -2z"/>
<path d="M2205 1323 c-11 -3 -26 -10 -34 -17 -11 -8 -15 -8 -18 2 -3 6 -20 12
-39 12 l-34 0 0 -210 0 -210 35 0 35 0 0 66 c0 59 2 65 18 58 9 -4 36 -9 59
-12 61 -6 98 33 108 110 7 57 0 129 -16 160 -16 29 -74 50 -114 41z m45 -99
c25 -66 1 -144 -44 -144 -35 0 -47 22 -47 85 0 65 12 85 52 85 22 0 32 -6 39
-26z"/>
<path d="M3662 1307 l-22 -24 20 -18 c20 -18 21 -18 43 3 17 17 19 26 11 39
-16 26 -28 26 -52 0z"/>
<path d="M2817 1313 c-4 -3 -7 -17 -7 -30 0 -20 5 -23 36 -23 33 0 36 2 30 23
-3 12 -6 25 -6 30 0 9 -44 9 -53 0z"/>
<path d="M3567 1214 c-18 -24 -18 -26 -2 -44 19 -22 35 -18 53 11 11 18 11 24
-4 40 -22 24 -25 24 -47 -7z"/>
<path d="M3473 1118 l-22 -21 21 -19 c21 -18 22 -18 45 4 21 20 22 23 6 40
-21 23 -24 23 -50 -4z"/>
<path d="M3382 1027 l-22 -24 20 -18 c20 -18 21 -18 41 2 18 18 19 23 8 42
-17 26 -21 26 -47 -2z"/>
<path d="M3278 931 c-17 -17 -17 -19 5 -39 21 -20 23 -20 45 -2 26 21 27 27 8
46 -19 18 -37 17 -58 -5z"/>
<path d="M320 700 c0 -28 3 -30 35 -30 32 0 35 2 35 30 0 28 -3 30 -35 30 -32
0 -35 -2 -35 -30z"/>
<path d="M322 573 c3 -24 8 -28 33 -28 25 0 30 4 33 28 3 25 1 27 -33 27 -34
0 -36 -2 -33 -27z"/>
<path d="M320 450 c0 -28 3 -30 35 -30 32 0 35 2 35 30 0 28 -3 30 -35 30 -32
0 -35 -2 -35 -30z"/>
<path d="M324 346 c-12 -31 0 -51 31 -51 27 0 30 3 30 30 0 25 -4 30 -28 33
-17 2 -29 -2 -33 -12z"/>
<path d="M320 200 c0 -28 3 -30 35 -30 32 0 35 2 35 30 0 28 -3 30 -35 30 -32
0 -35 -2 -35 -30z"/>
</g>
</svg>
