<?xml version="1.0" standalone="no"?>
<!DOCTYPE svg PUBLIC "-//W3C//DTD SVG 20010904//EN"
 "http://www.w3.org/TR/2001/REC-SVG-20010904/DTD/svg10.dtd">
<svg version="1.0" xmlns="http://www.w3.org/2000/svg"
 width="3168.000000pt" height="2448.000000pt" viewBox="0 0 3168.000000 2448.000000"
 preserveAspectRatio="xMidYMid meet">

<g transform="translate(0.000000,2448.000000) scale(0.100000,-0.100000)"
fill="#000000" stroke="none">
<path d="M13967 22029 c-124 -21 -285 -73 -379 -120 -207 -105 -411 -300 -548
-524 -23 -39 -43 -71 -44 -72 -1 -1 -60 -7 -131 -13 -1029 -90 -1892 -425
-2580 -1001 -139 -116 -361 -340 -487 -492 -421 -506 -745 -1151 -929 -1852
-45 -173 -63 -294 -81 -560 -19 -281 -16 -2053 6 -2905 9 -366 19 -879 22
-1140 3 -261 10 -504 15 -540 19 -119 93 -215 207 -268 l57 -27 795 4 c437 1
828 7 867 12 129 15 229 86 282 198 26 56 26 56 32 386 6 269 11 351 27 445
63 349 192 602 426 836 218 217 463 348 779 416 148 32 447 32 593 0 424 -92
744 -326 939 -687 89 -166 150 -358 181 -571 10 -70 18 -239 24 -469 9 -391
10 -403 69 -489 39 -57 98 -103 164 -128 51 -20 70 -21 762 -19 801 3 887 7
961 44 61 31 138 111 167 175 27 58 28 166 3 512 -36 499 -32 1045 10 1325 31
211 69 307 164 408 239 256 600 337 903 203 76 -33 208 -120 277 -182 30 -27
62 -53 71 -59 9 -5 63 -49 120 -98 231 -194 466 -346 774 -497 313 -154 568
-247 1001 -365 347 -95 437 -109 724 -109 269 -1 372 12 615 74 223 57 389
123 590 233 180 99 275 169 387 286 157 164 251 330 303 536 133 525 -68 1063
-507 1357 -318 213 -723 270 -1083 153 -94 -31 -217 -92 -310 -153 -85 -57
-240 -204 -305 -291 -223 -297 -301 -681 -212 -1038 15 -62 20 -70 53 -86 61
-29 225 -67 350 -79 172 -17 420 11 553 61 l28 11 -39 29 c-121 88 -195 250
-179 393 20 171 121 314 269 377 253 108 542 -35 612 -304 40 -156 -12 -325
-135 -438 -67 -62 -290 -177 -446 -231 -397 -136 -815 -122 -1158 38 -111 51
-207 137 -316 280 -202 266 -419 703 -603 1212 -97 269 -208 645 -220 746 -5
33 -18 106 -103 548 -48 249 -118 537 -179 735 -21 66 -66 226 -101 355 -36
129 -87 311 -115 404 -326 1090 -787 1859 -1380 2306 -212 159 -365 240 -685
358 -525 195 -960 313 -1314 357 -178 22 -474 19 -613 -6z m2043 -3669 c36 -6
101 -28 145 -49 280 -133 399 -466 267 -745 -31 -64 -106 -166 -124 -166 -5 0
-29 16 -52 35 -158 129 -490 171 -729 91 l-68 -23 -24 41 c-39 69 -58 137 -63
231 -8 169 44 303 167 426 136 136 294 188 481 159z"/>
<path d="M20155 19104 c-179 -27 -314 -72 -470 -154 -156 -83 -245 -149 -360
-264 -203 -205 -327 -436 -387 -725 -30 -142 -33 -440 -5 -571 99 -465 407
-869 848 -1113 l65 -36 60 55 c208 195 454 320 731 374 57 11 129 20 159 20
29 0 54 4 54 9 0 12 -148 71 -357 142 -94 32 -205 75 -245 95 -192 97 -357
237 -437 371 -159 267 -125 612 78 813 71 70 180 136 280 170 66 22 172 27
231 10 34 -10 173 -126 360 -303 118 -112 188 -162 307 -219 246 -118 509
-139 746 -59 271 92 461 255 577 495 70 147 91 238 97 428 8 231 -13 323 -89
394 -57 54 -95 69 -178 68 -73 0 -80 -2 -240 -77 -241 -114 -269 -146 -281
-318 -7 -113 -19 -147 -66 -191 -90 -86 -199 -59 -350 85 -246 234 -404 360
-520 414 -132 61 -246 85 -423 88 -85 2 -168 1 -185 -1z"/>
<path d="M22175 15918 c114 -220 158 -400 159 -648 0 -187 -16 -291 -70 -457
-76 -233 -180 -401 -358 -578 -142 -140 -242 -207 -515 -343 l-175 -87 110 -3
c60 -2 146 2 192 8 455 60 866 399 1011 836 51 152 64 234 64 399 0 260 -72
496 -213 706 -42 62 -235 269 -251 269 -4 0 17 -46 46 -102z"/>
<path d="M9120 11687 c-67 -28 -79 -35 -117 -68 -54 -46 -102 -118 -123 -185
-20 -65 -20 -89 -20 -1225 0 -748 4 -1194 11 -1257 49 -457 244 -855 570
-1167 509 -486 1225 -647 1893 -424 186 62 365 153 502 256 l50 38 -52 65
c-121 148 -239 386 -285 575 -13 50 -24 92 -25 93 -1 2 -37 -25 -78 -60 -146
-122 -309 -204 -491 -245 -49 -12 -117 -16 -225 -16 -135 0 -168 3 -253 26
-111 30 -255 95 -346 157 -83 55 -190 158 -252 239 -69 91 -154 267 -186 386
-27 100 -27 101 -31 513 l-3 412 589 0 c335 0 611 4 640 10 120 22 230 107
284 218 30 62 33 74 33 172 0 99 -2 110 -32 171 -40 80 -120 159 -200 197
l-58 27 -627 3 -628 3 0 383 c0 357 -1 389 -20 449 -34 109 -109 194 -217 245
-48 22 -74 27 -153 30 -81 2 -103 -1 -150 -21z"/>
<path d="M21603 11692 c-101 -36 -184 -111 -232 -212 l-26 -55 0 -1230 0
-1230 27 -125 c165 -761 722 -1316 1483 -1476 119 -26 149 -28 355 -28 236 -1
291 5 475 51 181 45 330 108 525 221 112 65 176 127 216 208 27 54 29 68 29
169 0 100 -3 116 -29 173 -38 81 -131 171 -213 203 -45 18 -78 23 -148 24
-105 0 -154 -16 -258 -83 -95 -61 -199 -108 -314 -140 -90 -24 -113 -27 -273
-27 -160 0 -183 3 -273 27 -421 118 -723 449 -798 878 -9 51 -13 179 -13 405
l-1 330 615 5 615 5 60 29 c305 150 304 584 -2 729 l-68 32 -612 3 -612 3 -3
422 -3 422 -27 57 c-37 80 -107 152 -186 190 -58 29 -77 33 -161 35 -74 3
-108 -1 -148 -15z"/>
<path d="M17263 11636 c-104 -34 -204 -123 -251 -224 -24 -50 -27 -69 -27
-162 0 -99 2 -110 32 -171 40 -80 120 -159 200 -197 52 -24 70 -27 163 -27 97
0 110 2 170 31 83 39 155 111 194 194 29 60 31 73 31 170 0 99 -2 110 -32 171
-40 81 -121 160 -200 197 -70 32 -210 41 -280 18z"/>
<path d="M12039 10587 c-107 -30 -204 -114 -253 -217 l-31 -65 0 -860 c0 -801
1 -866 19 -945 59 -274 177 -497 365 -692 127 -133 239 -216 396 -293 213
-105 384 -145 625 -145 242 0 414 40 625 145 72 36 152 81 178 100 l48 36 -62
67 c-78 85 -168 220 -220 329 -40 84 -109 280 -109 310 0 9 -20 -3 -54 -34
-239 -219 -605 -207 -836 26 -50 50 -88 100 -112 146 -70 135 -68 109 -68 946
0 468 -4 779 -10 819 -22 135 -104 245 -225 302 -78 36 -199 47 -276 25z"/>
<path d="M14079 10582 c-140 -47 -240 -161 -269 -307 -8 -43 -10 -288 -8 -885
4 -800 5 -828 25 -911 33 -135 70 -235 130 -350 202 -392 583 -668 1028 -745
124 -22 414 -14 535 14 490 115 878 466 1035 935 69 206 68 189 72 1047 5 847
2 896 -47 996 -37 75 -119 155 -197 192 -51 24 -70 27 -158 27 -88 0 -107 -3
-157 -27 -111 -52 -180 -123 -218 -226 -21 -56 -22 -67 -21 -837 1 -873 2
-858 -68 -1000 -64 -129 -201 -250 -346 -304 -274 -102 -609 30 -747 295 -65
125 -62 74 -68 979 l-5 830 -33 67 c-42 85 -129 168 -209 199 -80 30 -200 35
-274 11z"/>
<path d="M17270 10565 c-74 -21 -127 -54 -182 -113 -53 -56 -76 -97 -94 -167
-17 -63 -20 -1107 -3 -1285 43 -475 200 -885 456 -1192 215 -258 523 -437 798
-463 33 -3 77 -8 98 -11 l37 -4 0 398 0 398 -74 22 c-91 26 -177 89 -253 182
-67 82 -175 297 -207 415 -59 211 -59 211 -62 865 -2 333 -5 627 -8 653 -3 26
-19 74 -37 107 -66 123 -188 199 -332 206 -54 3 -101 -1 -137 -11z"/>
<path d="M20560 10569 c-642 -66 -1042 -352 -1161 -830 -12 -52 -22 -134 -26
-214 -6 -157 8 -253 72 -470 43 -149 119 -423 137 -500 16 -68 5 -187 -23
-242 -71 -136 -241 -183 -671 -183 l-248 0 0 -401 0 -401 318 5 c263 3 337 8
433 25 305 55 536 168 704 344 91 95 142 168 191 272 113 246 134 532 60 816
-88 335 -108 408 -136 498 -52 165 -50 274 6 341 51 61 211 117 399 142 50 6
183 11 298 11 l207 0 0 399 0 399 -237 -1 c-131 -1 -276 -6 -323 -10z"/>
<path d="M14639 6496 c-115 -44 -210 -133 -251 -233 l-23 -58 -3 -1285 c-2
-843 1 -1319 8 -1383 29 -280 115 -519 272 -754 98 -147 292 -342 441 -441
487 -325 1099 -368 1623 -117 206 99 434 284 579 470 384 492 453 1172 175
1726 -201 400 -538 691 -957 828 -189 62 -286 76 -518 75 -222 0 -321 -16
-505 -77 l-95 -32 -3 -472 -2 -473 82 67 c89 72 225 142 328 170 48 13 103 18
210 18 162 0 230 -15 365 -81 206 -101 371 -299 435 -524 78 -275 0 -583 -202
-796 -332 -349 -877 -348 -1209 3 -95 99 -155 206 -201 356 l-23 72 -5 1330
-5 1330 -33 68 c-40 82 -111 153 -189 192 -50 25 -71 29 -158 32 -67 2 -112
-2 -136 -11z"/>
<path d="M9160 6477 c-147 -43 -257 -156 -290 -299 -14 -61 -13 -2318 1 -2446
40 -368 182 -714 406 -992 78 -96 247 -260 343 -331 248 -185 524 -301 845
-355 150 -25 443 -23 600 5 135 24 335 79 335 92 0 5 -4 9 -10 9 -5 0 -55 35
-112 77 -182 138 -338 310 -459 507 l-50 83 -84 7 c-323 24 -613 181 -806 435
-69 91 -153 266 -186 386 l-28 100 -5 1215 c-5 1182 -6 1216 -25 1263 -42 101
-135 194 -232 231 -62 23 -185 30 -243 13z"/>
<path d="M12285 5324 c-292 -42 -519 -123 -725 -260 -516 -343 -795 -934 -729
-1542 41 -378 197 -702 473 -978 197 -196 392 -318 643 -400 339 -111 743
-104 1071 18 l52 19 0 476 0 475 -60 -56 c-140 -129 -363 -216 -555 -216 -202
0 -420 89 -572 233 -180 171 -273 403 -260 647 8 126 25 197 78 310 101 215
287 375 524 450 94 30 290 38 391 17 264 -56 481 -227 593 -467 78 -169 74
-118 80 -950 l6 -745 23 -58 c32 -79 116 -168 197 -208 49 -24 81 -32 143 -36
182 -13 333 83 404 257 l23 55 0 760 c0 755 0 761 -23 874 -135 666 -633 1168
-1290 1302 -94 19 -410 34 -487 23z"/>
</g>
</svg>
